# File created by Blade
# Date/Time:  Fri Jan 16 19:14:28 2015
# Frame Rate: 120.000 fps
#------------------------------------------------------
:FULLY-SPECIFIED
:DEGREES
1124
root 19.105723 35.715683 -20.967221 -170.478072 -0.349405 -178.817112
Spine -16.984888 1.474193 -0.325464
Head 6.289284 -2.841754 1.492302
LeftShoulder -9.577460 -34.368569 16.440228
LeftArm -0.120179 -1.620083 -7.735585
LeftForeArm 10.583954 -0.000000 -1.164326
LeftHand -3.296400 0.000000 -2.895808
LeftHandThumb1 -26.253704 0.000000 33.147579
RightShoulder -6.914173 0.671337 -8.485697
RightArm -0.731924 43.918963 15.757855
RightForeArm -38.300657 0.000000 9.701339
RightHand -4.411636 -0.000000 -4.359073
RightHandThumb1 -24.326973 -0.000000 -32.862282
LeftUpLeg -2.326160 8.622460 0.154011
LeftLeg -6.517790 -0.000000 0.000000
LeftFoot -18.913353 28.870682 -13.185318
LeftToeBase 24.971396 -0.000000 -0.000000
RightUpLeg -3.912526 -8.788021 0.945894
RightLeg -3.498977 -0.000000 0.000000
RightFoot -18.553239 -23.442918 16.336642
RightToeBase 24.142594 -0.000000 -0.000000
1125
root 19.111039 35.715396 -20.959474 -170.415650 -0.407749 -178.819548
Spine -17.080997 1.488832 -0.365893
Head 6.422333 -2.830586 1.454153
LeftShoulder -9.620182 -34.325755 16.303680
LeftArm -0.024515 -1.812741 -7.810661
LeftForeArm 9.594511 -0.000000 -1.146502
LeftHand -3.232226 -0.000000 -2.853405
LeftHandThumb1 -26.253704 0.000000 33.147579
RightShoulder -6.821343 0.628775 -8.366113
RightArm -1.003207 43.755612 15.675679
RightForeArm -38.253447 -0.000000 9.857541
RightHand -4.457045 -0.000000 -4.503177
RightHandThumb1 -24.326973 -0.000000 -32.862282
LeftUpLeg -2.412394 8.614278 0.153074
LeftLeg -6.515393 -0.000000 0.000000
LeftFoot -18.871584 28.830657 -13.134551
LeftToeBase 24.981005 -0.000000 -0.000000
RightUpLeg -3.978974 -8.831600 0.972328
RightLeg -3.507174 -0.000000 0.000000
RightFoot -18.548648 -23.460303 16.317602
RightToeBase 24.129961 -0.000000 -0.000000
1126
root 19.116965 35.714530 -20.953271 -170.326442 -0.463335 -178.807704
Spine -17.219632 1.535632 -0.394097
Head 6.561030 -2.846084 1.389479
LeftShoulder -9.611083 -34.391584 16.172934
LeftArm -0.024978 -1.956468 -7.871319
LeftForeArm 8.859322 -0.000000 -1.048152
LeftHand -3.143974 -0.000000 -3.003208
LeftHandThumb1 -26.253704 0.000000 33.147579
RightShoulder -6.758397 0.612397 -8.301801
RightArm -1.318532 43.655887 15.644292
RightForeArm -38.314206 -0.000000 10.090329
RightHand -4.648447 -0.000000 -4.586521
RightHandThumb1 -24.326973 -0.000000 -32.862282
LeftUpLeg -2.505480 8.568543 0.166613
LeftLeg -6.545710 -0.000000 0.000000
LeftFoot -18.853949 28.836374 -13.107254
LeftToeBase 25.056826 -0.000000 -0.000000
RightUpLeg -4.069915 -8.888236 1.015321
RightLeg -3.512561 -0.000000 0.000000
RightFoot -18.533251 -23.452657 16.293624
RightToeBase 24.123102 -0.000000 -0.000000
1127
root 19.122411 35.714251 -20.946375 -170.270509 -0.518561 -178.809939
Spine -17.299640 1.576793 -0.441600
Head 6.658934 -2.900675 1.345432
LeftShoulder -9.638435 -34.428400 16.092193
LeftArm -0.016391 -2.119275 -7.988304
LeftForeArm 8.312514 -0.000000 -0.932792
LeftHand -3.061099 -0.000000 -3.214927
LeftHandThumb1 -26.253704 0.000000 33.147579
RightShoulder -6.738657 0.613788 -8.221145
RightArm -1.546830 43.623789 15.642033
RightForeArm -38.303955 -0.000000 10.266909
RightHand -4.715903 0.000000 -4.693338
RightHandThumb1 -24.326973 -0.000000 -32.862282
LeftUpLeg -2.574111 8.550549 0.166549
LeftLeg -6.560746 -0.000000 0.000000
LeftFoot -18.821222 28.812407 -13.089678
LeftToeBase 25.023237 -0.000000 -0.000000
RightUpLeg -4.135426 -8.945279 1.038111
RightLeg -3.501287 -0.000000 0.000000
RightFoot -18.536632 -23.422933 16.357830
RightToeBase 23.985230 -0.000000 -0.000000
1128
root 19.128106 35.713845 -20.940017 -170.211430 -0.585386 -178.805595
Spine -17.387411 1.613886 -0.476807
Head 6.767789 -2.925394 1.303101
LeftShoulder -9.629976 -34.461265 16.009576
LeftArm -0.044220 -2.313683 -8.114534
LeftForeArm 8.060389 -0.000000 -0.798805
LeftHand -3.008990 0.000000 -3.346526
LeftHandThumb1 -26.253704 0.000000 33.147579
RightShoulder -6.725506 0.655090 -8.173391
RightArm -1.817937 43.561786 15.638157
RightForeArm -38.305005 -0.000000 10.469468
RightHand -4.784664 -0.000000 -4.588277
RightHandThumb1 -24.326973 -0.000000 -32.862282
LeftUpLeg -2.645389 8.520274 0.175464
LeftLeg -6.578748 -0.000000 0.000000
LeftFoot -18.785877 28.800833 -13.052744
LeftToeBase 25.042091 -0.000000 -0.000000
RightUpLeg -4.191203 -8.986450 1.069386
RightLeg -3.515783 -0.000000 0.000000
RightFoot -18.542140 -23.440913 16.275577
RightToeBase 24.134625 -0.000000 -0.000000
1129
root 19.132622 35.713303 -20.934962 -170.156721 -0.661461 -178.807665
Spine -17.478384 1.631638 -0.510046
Head 6.909139 -2.923084 1.247569
LeftShoulder -9.619527 -34.509904 15.935907
LeftArm -0.055700 -2.373582 -8.238298
LeftForeArm 7.915202 -0.000000 -0.730189
LeftHand -2.989222 -0.000000 -3.524380
LeftHandThumb1 -26.253704 0.000000 33.147579
RightShoulder -6.734033 0.667704 -8.122990
RightArm -2.026176 43.711772 15.687883
RightForeArm -38.394670 -0.000000 10.693738
RightHand -4.924215 0.000000 -4.675064
RightHandThumb1 -24.326973 -0.000000 -32.862282
LeftUpLeg -2.721378 8.504044 0.177004
LeftLeg -6.576007 -0.000000 0.000000
LeftFoot -18.768168 28.750610 -13.020076
LeftToeBase 25.091698 -0.000000 -0.000000
RightUpLeg -4.237623 -9.041691 1.094854
RightLeg -3.534194 -0.000000 0.000000
RightFoot -18.542692 -23.464131 16.252975
RightToeBase 24.122264 -0.000000 -0.000000
1130
root 19.137345 35.712869 -20.931756 -170.108749 -0.733326 -178.801506
Spine -17.568433 1.655953 -0.539121
Head 7.069901 -2.850981 1.196570
LeftShoulder -9.617848 -34.518974 15.868527
LeftArm -0.031576 -2.347852 -8.364623
LeftForeArm 7.786264 0.000000 -0.699845
LeftHand -3.000766 -0.000000 -3.860645
LeftHandThumb1 -26.253704 0.000000 33.147579
RightShoulder -6.760032 0.686963 -8.059438
RightArm -2.145788 43.782276 15.743385
RightForeArm -38.556792 -0.000000 10.785047
RightHand -5.087813 0.000000 -4.588106
RightHandThumb1 -24.326973 -0.000000 -32.862282
LeftUpLeg -2.781657 8.505847 0.185504
LeftLeg -6.586707 -0.000000 0.000000
LeftFoot -18.730488 28.703991 -12.969957
LeftToeBase 25.093464 -0.000000 -0.000000
RightUpLeg -4.274489 -9.103166 1.130248
RightLeg -3.555544 -0.000000 0.000000
RightFoot -18.530149 -23.484487 16.253220
RightToeBase 24.110709 -0.000000 -0.000000
1131
root 19.142226 35.712754 -20.927620 -170.048597 -0.826883 -178.807662
Spine -17.666864 1.664878 -0.588079
Head 7.211987 -2.811358 1.183543
LeftShoulder -9.638725 -34.512124 15.800848
LeftArm 0.079629 -2.312956 -8.495635
LeftForeArm 7.855091 -0.000000 -0.729096
LeftHand -3.027430 -0.000000 -4.106903
LeftHandThumb1 -26.253704 0.000000 33.147579
RightShoulder -6.789617 0.750364 -8.006111
RightArm -2.321950 43.728717 15.746873
RightForeArm -38.507467 -0.000000 10.840063
RightHand -5.069685 -0.000000 -4.643829
RightHandThumb1 -24.326973 -0.000000 -32.862282
LeftUpLeg -2.864259 8.471155 0.184221
LeftLeg -6.585109 -0.000000 0.000000
LeftFoot -18.711004 28.658047 -12.973799
LeftToeBase 25.112201 -0.000000 -0.000000
RightUpLeg -4.325593 -9.178785 1.157345
RightLeg -3.568731 -0.000000 0.000000
RightFoot -18.535141 -23.507260 16.225556
RightToeBase 24.150045 -0.000000 -0.000000
1132
root 19.147861 35.712329 -20.924469 -169.999149 -0.903298 -178.803580
Spine -17.757854 1.669307 -0.622787
Head 7.346245 -2.765574 1.186737
LeftShoulder -9.640378 -34.526933 15.751091
LeftArm 0.134552 -2.167870 -8.599727
LeftForeArm 7.927102 0.000000 -0.774651
LeftHand -3.053435 -0.000000 -4.378316
LeftHandThumb1 -26.253704 0.000000 33.147579
RightShoulder -6.808020 0.752637 -7.935050
RightArm -2.436881 43.831385 15.775092
RightForeArm -38.618260 -0.000000 10.879381
RightHand -5.083170 0.000000 -4.595731
RightHandThumb1 -24.326973 -0.000000 -32.862282
LeftUpLeg -2.923711 8.446920 0.194544
LeftLeg -6.600433 -0.000000 0.000000
LeftFoot -18.685508 28.630239 -12.934039
LeftToeBase 25.162052 -0.000000 -0.000000
RightUpLeg -4.353028 -9.163749 1.179191
RightLeg -3.603010 -0.000000 0.000000
RightFoot -18.546796 -23.569511 16.264248
RightToeBase 24.137622 -0.000000 -0.000000
